<svg height="511pt" viewBox="0 0 511.99946 511" width="511pt" xmlns="http://www.w3.org/2000/svg"><path d="m483.019531 504.863281h-454.039062c-11.828125 0-21.417969-9.589843-21.417969-21.417969v-157.140624c0-11.828126 9.589844-21.414063 21.417969-21.414063h454.039062c11.828125 0 21.417969 9.585937 21.417969 21.414063v157.140624c-.003906 11.828126-9.589844 21.417969-21.417969 21.417969zm0 0" fill="#fdca74"/><path d="m483.019531 304.890625h-38.492187c11.824218 0 21.414062 9.585937 21.414062 21.417969v157.136718c0 11.828126-9.585937 21.417969-21.414062 21.417969h38.492187c11.828125 0 21.417969-9.585937 21.417969-21.417969v-157.136718c-.003906-11.832032-9.589844-21.417969-21.417969-21.417969zm0 0" fill="#e6af55"/><path d="m412.957031 304.890625h-313.917969v-131.710937c0-11.828126 9.589844-21.417969 21.417969-21.417969h271.085938c11.828125 0 21.417969 9.589843 21.417969 21.417969v131.710937zm0 0" fill="#fdca74"/><path d="m391.542969 151.765625h-36.992188c11.828125 0 21.417969 9.585937 21.417969 21.414063v131.710937h36.992188v-131.710937c-.003907-11.828126-9.589844-21.414063-21.417969-21.414063zm0 0" fill="#e6af55"/><path d="m483.019531 304.890625h-454.039062c-11.828125 0-21.417969 9.585937-21.417969 21.417969v89.410156c31.054688 0 31.054688 19.996094 62.105469 19.996094 31.054687 0 31.054687-19.996094 62.109375-19.996094 31.054687 0 31.054687 19.996094 62.109375 19.996094 31.054687 0 31.054687-19.996094 62.105469-19.996094 31.054687 0 31.054687 19.996094 62.109374 19.996094 31.054688 0 31.054688-19.996094 62.109376-19.996094 31.054687 0 31.054687 19.996094 62.113281 19.996094 31.054687 0 31.054687-19.996094 62.113281-19.996094v-89.410156c-.003906-11.832032-9.589844-21.417969-21.417969-21.417969zm0 0" fill="#a64f3b"/><path d="m483.019531 304.890625h-38.492187c11.824218 0 21.414062 9.585937 21.414062 21.417969v103.898437c11.140625-5.917969 18.164063-14.488281 38.496094-14.488281v-89.410156c-.003906-11.832032-9.589844-21.417969-21.417969-21.417969zm0 0" fill="#914534"/><path d="m391.542969 151.765625h-271.085938c-11.828125 0-21.417969 9.585937-21.417969 21.414063v55.40625c26.160157 0 26.160157 19.996093 52.316407 19.996093 26.160156 0 26.160156-19.996093 52.316406-19.996093 26.160156 0 26.160156 19.996093 52.320313 19.996093 26.160156 0 26.160156-19.996093 52.316406-19.996093 26.164062 0 26.164062 19.996093 52.324218 19.996093 26.164063 0 26.164063-19.996093 52.324219-19.996093v-55.40625c0-11.828126-9.585937-21.414063-21.414062-21.414063zm0 0" fill="#a64f3b"/><path d="m391.542969 151.765625h-36.992188c11.828125 0 21.417969 9.585937 21.417969 21.414063v72.363281c12.40625-5.59375 17.265625-16.957031 36.992188-16.957031v-55.40625c-.003907-11.828126-9.589844-21.414063-21.417969-21.414063zm0 0" fill="#914534"/><path d="m198.015625 151.765625h-51.988281v-79.121094c0-4.691406 3.804687-8.496093 8.5-8.496093h34.988281c4.695313 0 8.5 3.804687 8.5 8.496093zm0 0" fill="#f94b6c"/><path d="m189.515625 64.148438h-21.328125c4.695312 0 8.5 3.804687 8.5 8.496093v79.121094h21.328125v-79.121094c0-4.691406-3.804687-8.496093-8.5-8.496093zm0 0" fill="#e83859"/><path d="m188.890625 29.117188c0 9.316406-7.550781 16.867187-16.871094 16.867187-9.3125 0-16.867187-7.550781-16.867187-16.867187 0-9.316407 16.867187-21.121094 16.867187-21.121094s16.871094 11.804687 16.871094 21.121094zm0 0" fill="#fae34b"/><path d="m281.992188 151.765625h-51.984376v-79.121094c0-4.691406 3.804688-8.496093 8.496094-8.496093h34.992188c4.691406 0 8.496094 3.804687 8.496094 8.496093zm0 0" fill="#f94b6c"/><path d="m273.496094 64.148438h-21.328125c4.691406 0 8.496093 3.804687 8.496093 8.496093v79.121094h21.328126v-79.121094c0-4.691406-3.804688-8.496093-8.496094-8.496093zm0 0" fill="#e83859"/><path d="m272.867188 29.117188c0 9.316406-7.550782 16.867187-16.867188 16.867187s-16.867188-7.550781-16.867188-16.867187c0-9.316407 16.867188-21.121094 16.867188-21.121094s16.867188 11.804687 16.867188 21.121094zm0 0" fill="#fae34b"/><path d="m365.972656 151.765625h-51.988281v-79.121094c0-4.691406 3.804687-8.496093 8.496094-8.496093h34.992187c4.691406 0 8.5 3.804687 8.5 8.496093zm0 0" fill="#f94b6c"/><path d="m357.472656 64.148438h-21.328125c4.695313 0 8.5 3.804687 8.5 8.496093v79.121094h21.328125v-79.121094c0-4.691406-3.804687-8.496093-8.5-8.496093zm0 0" fill="#e83859"/><path d="m356.847656 29.117188c0 9.316406-7.554687 16.867187-16.871094 16.867187-9.316406 0-16.867187-7.550781-16.867187-16.867187 0-9.316407 16.867187-21.121094 16.867187-21.121094s16.871094 11.804687 16.871094 21.121094zm0 0" fill="#fae34b"/><path d="m507.492188 311.03125c-5.113282-8.183594-14.203126-13.636719-24.539063-13.636719h-62.5625c-1.171875-130.273437 2.953125-127.765625-4.375-139.492187-5.113281-8.179688-14.199219-13.636719-24.539063-13.636719h-18.074218v-71.617187c0-8.820313-7.175782-15.996094-15.996094-15.996094h-9.996094v-4.347656c9.777344-3.167969 16.867188-12.367188 16.867188-23.1875 0-12.265626-15.359375-23.96875-20.066406-27.261719-2.582032-1.808594-6.015626-1.808594-8.597657 0-4.707031 3.292969-20.066406 14.996093-20.066406 27.261719 0 10.824218 7.089844 20.019531 16.867187 23.1875v4.347656h-9.996093c-8.820313 0-15.996094 7.175781-15.996094 15.996094v71.621093h-16.996094v-71.625c0-8.816406-7.175781-15.992187-15.996093-15.992187h-9.996094v-4.347656c9.777344-3.167969 16.867187-12.367188 16.867187-23.1875 0-12.265626-15.359375-23.96875-20.066406-27.261719-2.582031-1.808594-6.015625-1.808594-8.597656 0-4.707031 3.292969-20.066407 14.996093-20.066407 27.261719 0 10.824218 7.089844 20.019531 16.867188 23.1875v4.347656h-9.996094c-8.820312 0-15.996094 7.175781-15.996094 15.992187v17.582031c0 4.140626 3.355469 7.496094 7.496094 7.496094s7.5-3.355468 7.5-7.496094v-17.582031c0-1.898437 2.414063-.609375 18.417969-.996093 17.65625.164062 18.570313-.625 18.570313.996093v71.625h-36.988282v-26.050781c0-4.140625-3.359375-7.5-7.5-7.5s-7.496094 3.359375-7.496094 7.5v26.050781h-16.996093v-71.621093c0-8.820313-7.175781-15.996094-15.996094-15.996094h-9.996094v-4.347656c9.777344-3.167969 16.867188-12.367188 16.867188-23.1875 0-12.265626-15.359375-23.96875-20.066407-27.261719-2.582031-1.808594-6.019531-1.808594-8.597656 0-4.710937 3.292969-20.070312 14.996093-20.070312 27.261719 0 10.824218 7.09375 20.019531 16.871094 23.1875v4.347656h-10c-8.816407 0-15.992188 7.175781-15.992188 15.996094v71.621093h-18.074219c-15.945312 0-28.914062 12.96875-28.914062 28.914063v124.210937h-62.566407c-15.941406 0-28.914062 12.96875-28.914062 28.914063v157.140625c0 15.941406 12.972656 28.914062 28.914062 28.914062h454.039063c15.941406 0 28.914063-12.972656 28.914063-28.914062-1.207032-167.171875 3.019531-160.589844-4.375-172.417969zm-167.582032-293.535156c5.164063 4.425781 9.371094 9.488281 9.371094 11.621094 0 5.167968-4.203125 9.371093-9.371094 9.371093-5.164062 0-9.367187-4.203125-9.367187-9.371093 0-2.132813 4.207031-7.199219 9.367187-11.621094zm-83.976562 0c5.164062 4.425781 9.371094 9.488281 9.371094 11.621094 0 5.167968-4.203126 9.371093-9.371094 9.371093-5.167969 0-9.371094-4.203125-9.371094-9.371093 0-2.132813 4.210938-7.199219 9.371094-11.621094zm-83.976563 0c5.160157 4.425781 9.367188 9.488281 9.367188 11.621094 0 5.167968-4.203125 9.371093-9.367188 9.371093-5.167969 0-9.371093-4.203125-9.371093-9.371093 0-2.132813 4.207031-7.199219 9.371093-11.621094zm150.460938 54.152344c34.578125.429687 35.988281-.929688 35.988281 1v71.621093h-36.988281c.453125-73.734375-.960938-72.621093 1-72.621093zm-168.957031 1c0-1.925782 1.441406-.570313 35.988281-1 1.941406 0 .546875-1.210938 1 72.621093h-36.988281zm-46.988282 100.535156c0-7.675782 6.242188-13.921875 13.917969-13.921875h271.085937c7.710938 0 13.917969 6.28125 13.917969 13.921875v48.441406c-22.421875 3.359375-24.300781 19.457031-44.828125 19.457031-22.183594 0-23.59375-19.992187-52.324218-19.992187-28.414063 0-30.449219 19.992187-52.316407 19.992187-22.183593 0-23.59375-19.992187-52.320312-19.992187-28.414063 0-30.445313 19.992187-52.316407 19.992187-20.589843 0-22.242187-16.074219-44.816406-19.457031zm0 63.679687c14.714844 3.375 19.535156 19.214844 44.816406 19.214844 28.417969 0 30.449219-19.992187 52.316407-19.992187 22.1875 0 23.59375 19.992187 52.320312 19.992187 28.417969 0 30.449219-19.992187 52.316407-19.992187 22.1875 0 23.597656 19.992187 52.324218 19.992187 25.296875 0 30.113282-15.839844 44.828125-19.21875v60.535156h-298.921875zm376.480469 260.503907h-454.039063c-7.671874 0-13.917968-6.246094-13.917968-13.917969v-59.726563c20.332031 2.933594 24.28125 19.492188 54.609375 19.492188 33.222656 0 34.535156-19.996094 62.105469-19.996094 27.796874 0 28.621093 19.996094 62.109374 19.996094 28.144532 0 34.257813-14.667969 50.722657-18.730469 4.019531-.992187 6.472656-5.058594 5.480469-9.078125-.992188-4.019531-5.054688-6.476562-9.074219-5.480469-20.96875 5.171875-23.582031 18.292969-47.128907 18.292969-27.785156 0-28.632812-19.996094-62.109374-19.996094-33.222657 0-34.535157 19.996094-62.109376 19.996094-25.699218 0-27.832031-16.726562-54.605468-19.609375v-82.300781c0-7.671875 6.242187-13.917969 13.917968-13.917969h454.035157c5.5625 0 10.546875 3.3125 12.757812 8.351563 2.09375 4.78125.742188.960937 1.164063 87.867187-26.546875 2.855469-29.050782 19.609375-54.617188 19.609375-27.796875 0-28.621094-19.996094-62.113281-19.996094-33.222656 0-34.535156 19.996094-62.109375 19.996094-22.789062 0-25.820312-12.210938-45.222656-17.792969-3.980469-1.144531-8.132813 1.152344-9.277344 5.132813-1.144531 3.980468 1.152344 8.132812 5.132812 9.277344 5.574219 1.605468 9.597657 4.191406 14.25 7.1875 8.148438 5.246093 17.386719 11.191406 35.117188 11.191406 33.226562 0 34.535156-19.996094 62.109375-19.996094 27.800781 0 28.625 19.996094 62.113281 19.996094 17.734375 0 26.96875-5.945313 35.117188-11.191406 5.804687-3.738282 10.988281-7.074219 19.5-8.300782v59.726563c0 7.671875-6.246094 13.917969-13.917969 13.917969zm0 0"/></svg>