<svg height="512pt" viewBox="0 0 512 512" width="512pt" xmlns="http://www.w3.org/2000/svg"><path d="m255.917969 21.332031s15.054687-13.832031 39.871093-13.832031c23.605469 0 39.875 19.691406 39.875 42.699219 0 27.574219-23.875 57.023437-79.746093 86.894531-55.875-29.871094-79.746094-59.320312-79.746094-86.894531 0-23.007813 16.265625-42.699219 39.871094-42.699219 24.820312 0 39.875 13.832031 39.875 13.832031zm0 0" fill="#f99daf"/><path d="m295.789062 7.5c-8.308593 0-15.519531 1.554688-21.441406 3.617188 14.316406 6.707031 23.316406 21.976562 23.316406 39.082031 0 24.214843-18.421874 49.875-60.746093 76 5.871093 3.625 12.191406 7.253906 19 10.894531 55.871093-29.871094 79.746093-59.320312 79.746093-86.894531 0-23.007813-16.269531-42.699219-39.875-42.699219zm0 0" fill="#eb7e94"/><path d="m483.078125 504.492188h-454.15625c-11.828125 0-21.421875-9.589844-21.421875-21.421876v-157.179687c0-11.832031 9.589844-21.421875 21.421875-21.421875h454.15625c11.832031 0 21.421875 9.589844 21.421875 21.421875v157.179687c0 11.832032-9.589844 21.421876-21.421875 21.421876zm0 0" fill="#fdca74"/><path d="m483.078125 304.46875h-38.503906c11.832031 0 21.421875 9.589844 21.421875 21.421875v157.179687c0 11.832032-9.589844 21.425782-21.421875 21.425782h38.503906c11.828125 0 21.421875-9.59375 21.421875-21.425782v-157.179687c0-11.832031-9.589844-21.421875-21.421875-21.421875zm0 0" fill="#e6af55"/><path d="m413 304.46875h-314v-131.742188c0-11.832031 9.589844-21.425781 21.421875-21.425781h271.15625c11.832031 0 21.421875 9.59375 21.421875 21.425781zm0 0" fill="#fdca74"/><path d="m391.578125 151.304688h-37c11.828125 0 21.421875 9.589843 21.421875 21.421874v131.742188h37v-131.742188c0-11.832031-9.589844-21.421874-21.421875-21.421874zm0 0" fill="#e6af55"/><path d="m483.078125 304.46875h-454.15625c-11.828125 0-21.421875 9.589844-21.421875 21.421875v89.4375c31.0625 0 31.0625 20 62.121094 20 31.0625 0 31.0625-20 62.125-20s31.0625 20 62.125 20 31.0625-20 62.121094-20c31.0625 0 31.0625 20 62.125 20s31.0625-20 62.125-20c31.066406 0 31.066406 20 62.128906 20 31.066406 0 31.066406-20 62.128906-20v-89.4375c0-11.832031-9.589844-21.421875-21.421875-21.421875zm0 0" fill="#f94b6c"/><path d="m483.078125 304.46875h-38.503906c11.832031 0 21.421875 9.589844 21.421875 21.421875v103.929687c11.140625-5.921874 18.167968-14.492187 38.503906-14.492187v-89.4375c0-11.832031-9.589844-21.421875-21.421875-21.421875zm0 0" fill="#e83859"/><path d="m391.578125 151.304688h-271.15625c-11.828125 0-21.421875 9.589843-21.421875 21.421874v55.417969c26.164062 0 26.164062 20 52.328125 20s26.164063-20 52.332031-20c26.164063 0 26.164063 20 52.332032 20 26.164062 0 26.164062-20 52.332031-20s26.167969 20 52.335937 20c26.167969 0 26.167969-20 52.339844-20v-55.417969c0-11.832031-9.589844-21.421874-21.421875-21.421874zm0 0" fill="#f94b6c"/><path d="m391.578125 151.304688h-37c11.828125 0 21.421875 9.589843 21.421875 21.421874v72.378907c12.410156-5.59375 17.269531-16.960938 37-16.960938v-55.417969c0-11.832031-9.589844-21.421874-21.421875-21.421874zm0 0" fill="#e83859"/><path d="m329.371094 151.304688h-146.742188v-17.304688c0-10.695312 8.667969-19.367188 19.367188-19.367188h108.011718c10.695313 0 19.367188 8.671876 19.367188 19.367188v17.304688zm0 0" fill="#d7d9cc"/><path d="m310.003906 114.632812h-33c10.699219 0 19.367188 8.671876 19.367188 19.367188v17.304688h33v-17.304688c0-10.695312-8.667969-19.367188-19.367188-19.367188zm0 0" fill="#bebfb5"/><path d="m483.078125 296.96875h-62.578125v-124.242188c0-15.949218-12.976562-28.921874-28.921875-28.921874h-54.707031v-9.804688c0-13.824219-10.492188-25.242188-23.933594-26.707031 20.074219-18.5625 30.226562-37.707031 30.226562-57.09375 0-28.148438-20.808593-50.199219-47.375-50.199219-18.976562 0-32.878906 7.261719-39.871093 11.949219-6.996094-4.6875-20.894531-11.949219-39.875-11.949219-21.453125 0-39.238281 13.839844-45.308594 35.253906-1.128906 3.984375 1.1875 8.132813 5.171875 9.261719 3.988281 1.128906 8.132812-1.1875 9.261719-5.171875 4.1875-14.789062 16.308593-24.34375 30.875-24.34375 21.363281 0 34.695312 11.761719 34.800781 11.855469 2.867188 2.636719 7.277344 2.636719 10.148438 0 .128906-.121094 13.152343-11.855469 34.796874-11.855469 18.457032 0 32.375 15.132812 32.375 35.199219 0 18.574219-12.945312 37.722656-38.484374 56.933593h-67.519532c-19.625-14.769531-31.882812-29.59375-36.441406-44.085937-1.246094-3.949219-5.457031-6.144531-9.40625-4.902344-3.953125 1.246094-6.148438 5.457031-4.902344 9.40625 4.226563 13.429688 13.457032 26.75 27.515625 39.757813-13.375 1.527344-23.796875 12.914062-23.796875 26.691406v9.804688h-54.703125c-15.949219 0-28.921875 12.972656-28.921875 28.921874v124.242188h-62.582031c-15.945313 0-28.921875 12.972656-28.921875 28.921875v157.179687c0 15.949219 12.976562 28.925782 28.921875 28.925782h454.15625c15.945313 0 28.921875-12.976563 28.921875-28.925782v-157.179687c0-15.949219-12.976562-28.921875-28.921875-28.921875zm-292.949219-162.96875c0-6.546875 5.320313-11.867188 11.863282-11.867188h108.015624c6.542969 0 11.863282 5.320313 11.863282 11.867188v9.800781h-131.742188zm-83.628906 38.726562c0-7.679687 6.246094-13.921874 13.921875-13.921874h271.15625c7.675781 0 13.921875 6.246093 13.921875 13.921874v48.457032c-22.371094 3.347656-24.363281 19.460937-44.839844 19.460937-22.1875 0-23.601562-20-52.335937-20-28.421875 0-30.460938 20-52.332031 20-22.191407 0-23.597657-20-52.332032-20-28.425781 0-30.457031 20-52.332031 20-20.597656 0-22.253906-16.082031-44.828125-19.460937zm0 63.695313c14.71875 3.378906 19.539062 19.222656 44.828125 19.222656 28.421875 0 30.457031-20 52.332031-20 22.191406 0 23.597656 20 52.332032 20 28.421874 0 30.457031-20 52.332031-20 22.191406 0 23.601562 20 52.335937 20 25.304688 0 30.121094-15.84375 44.839844-19.222656v60.546875h-299zm376.578125 260.570313h-454.15625c-7.675781 0-13.921875-6.246094-13.921875-13.921876v-59.742187c20.335938 2.9375 24.289062 19.5 54.621094 19.5 33.558594 0 34.210937-20 62.125-20 27.835937 0 28.566406 20 62.125 20 28.144531 0 34.269531-14.671875 50.734375-18.738281 4.019531-.992188 6.476562-5.058594 5.480469-9.078125-.992188-4.023438-5.058594-6.476563-9.078126-5.484375-20.972656 5.175781-23.585937 18.300781-47.140624 18.300781-27.789063 0-28.636719-20-62.121094-20-33.554688 0-34.214844 20-62.125 20-25.695313 0-27.859375-16.734375-54.621094-19.613281v-82.324219c0-7.675781 6.246094-13.921875 13.921875-13.921875h454.152344c7.679687 0 13.925781 6.246094 13.925781 13.921875v82.324219c-26.554688 2.851562-29.058594 19.613281-54.628906 19.613281-27.839844 0-28.570313-20-62.128906-20-33.558594 0-34.214844 20-62.128907 20-22.703125 0-25.992187-12.261719-45.234375-17.796875-3.980468-1.148438-8.136718 1.152344-9.28125 5.132812-1.144531 3.980469 1.15625 8.136719 5.136719 9.28125 15.378906 4.425782 21.964844 18.382813 49.382813 18.382813 33.230468 0 34.5625-20 62.125-20 27.839843 0 28.570312 20 62.128906 20 30.332031 0 34.300781-16.566406 54.628906-19.5v59.742187c0 7.675782-6.246094 13.921876-13.921875 13.921876zm0 0"/></svg>