<svg height="511pt" viewBox="0 -10 511.998 511" width="511pt" xmlns="http://www.w3.org/2000/svg"><path d="m504.496094 246.53125c0 25.761719-23.035156 47.566406-30.582032 70.808594-7.824218 24.089844-2.273437 55.21875-16.863281 75.269531-14.738281 20.25-46.160156 24.523437-66.410156 39.261719-20.050781 14.59375-33.742187 43.238281-57.832031 51.058594-23.242188 7.546874-51.050782-7.332032-76.808594-7.332032s-53.566406 14.878906-76.808594 7.332032c-24.089844-7.820313-37.78125-36.464844-57.832031-51.058594-20.253906-14.738282-51.671875-19.011719-66.410156-39.261719-14.59375-20.050781-9.042969-51.179687-16.863281-75.269531-7.546876-23.242188-30.582032-45.046875-30.582032-70.808594 0-25.757812 23.035156-47.5625 30.582032-70.804688 7.820312-24.089843 2.269531-55.21875 16.863281-75.269531 14.738281-20.25 46.15625-24.523437 66.410156-39.261719 20.050781-14.59375 33.742187-43.238281 57.832031-51.058593 23.242188-7.546875 51.050782 7.332031 76.808594 7.332031s53.566406-14.878906 76.808594-7.332031c24.089844 7.820312 37.78125 36.464843 57.832031 51.058593 20.253906 14.738282 51.671875 19.011719 66.410156 39.261719 14.589844 20.050781 9.039063 51.179688 16.863281 75.269531 7.546876 23.242188 30.582032 45.046876 30.582032 70.804688zm0 0" fill="#a64f3b"/><path d="m473.914062 175.726562c-7.820312-24.089843-2.269531-55.21875-16.863281-75.269531-14.738281-20.253906-46.15625-24.523437-66.410156-39.261719-20.050781-14.59375-33.742187-43.238281-57.832031-51.058593-14.484375-4.703125-30.738282-.699219-47.164063 2.988281 19.910157 10.5 32.800781 34.957031 50.820313 48.070312 20.253906 14.738282 51.671875 19.011719 66.410156 39.261719 14.59375 20.050781 9.042969 51.179688 16.863281 75.269531 7.546875 23.242188 30.585938 45.046876 30.585938 70.804688s-23.039063 47.566406-30.585938 70.808594c-7.820312 24.089844-2.269531 55.214844-16.863281 75.269531-14.738281 20.25-46.15625 24.523437-66.410156 39.261719-18.019532 13.113281-30.910156 37.570312-50.820313 48.070312 16.425781 3.683594 32.679688 7.6875 47.164063 2.988282 24.089844-7.824219 37.78125-36.46875 57.832031-51.058594 20.253906-14.738282 51.671875-19.011719 66.410156-39.261719 14.589844-20.054687 9.039063-51.179687 16.863281-75.269531 7.546876-23.242188 30.582032-45.050782 30.582032-70.808594s-23.035156-47.5625-30.582032-70.804688zm0 0" fill="#914534"/><path d="m306.257812 91.496094c0 18.363281-14.886718 33.25-33.253906 33.25-18.363281 0-33.25-14.886719-33.25-33.25 0-18.363282 14.886719-33.25 33.25-33.25 18.367188 0 33.253906 14.886718 33.253906 33.25zm0 0" fill="#fdca74"/><path d="m273.003906 58.242188c-3.597656 0-7.058594.582031-10.304687 1.636718 13.316406 4.339844 22.941406 16.851563 22.941406 31.617188s-9.625 27.273437-22.941406 31.613281c3.246093 1.058594 6.707031 1.636719 10.304687 1.636719 18.367188 0 33.253906-14.886719 33.253906-33.25 0-18.363282-14.886718-33.253906-33.253906-33.253906zm0 0" fill="#e6af55"/><path d="m158.226562 160.757812c0 18.363282-14.886718 33.253907-33.25 33.253907-18.367187 0-33.253906-14.890625-33.253906-33.253907 0-18.363281 14.886719-33.25 33.253906-33.25 18.363282 0 33.25 14.886719 33.25 33.25zm0 0" fill="#fdca74"/><path d="m124.976562 127.507812c-3.953124 0-7.738281.691407-11.253906 1.957032 12.824219 4.609375 21.996094 16.878906 21.996094 31.292968 0 14.414063-9.171875 26.683594-21.996094 31.296876 3.515625 1.261718 7.300782 1.957031 11.253906 1.957031 18.363282 0 33.25-14.890625 33.25-33.253907 0-18.363281-14.886718-33.25-33.25-33.25zm0 0" fill="#e6af55"/><path d="m191.476562 330.3125c0 18.363281-14.886718 33.25-33.25 33.25-18.363281 0-33.25-14.886719-33.25-33.25s14.886719-33.25 33.25-33.25c18.363282 0 33.25 14.886719 33.25 33.25zm0 0" fill="#fdca74"/><path d="m158.226562 297.0625c-4.328124 0-8.460937.835938-12.253906 2.339844 12.296875 4.878906 21 16.875 21 30.910156s-8.703125 26.03125-21 30.910156c3.792969 1.507813 7.925782 2.339844 12.253906 2.339844 18.363282 0 33.25-14.886719 33.25-33.25.003907-18.363281-14.882812-33.25-33.25-33.25zm0 0" fill="#e6af55"/><path d="m443.9375 213.257812c0 18.363282-14.886719 33.25-33.25 33.25s-33.253906-14.886718-33.253906-33.25c0-18.367187 14.890625-33.253906 33.253906-33.253906s33.25 14.886719 33.25 33.253906zm0 0" fill="#fdca74"/><path d="m410.6875 180.003906c-3.488281 0-6.847656.539063-10.003906 1.535156 13.476562 4.246094 23.25 16.839844 23.25 31.714844 0 14.878906-9.773438 27.472656-23.25 31.71875 3.15625.996094 6.515625 1.535156 10.003906 1.535156 18.363281 0 33.25-14.886718 33.25-33.253906 0-18.363281-14.886719-33.25-33.25-33.25zm0 0" fill="#e6af55"/><path d="m282.492188 231.847656c0 18.367188-14.886719 33.253906-33.253907 33.253906-18.363281 0-33.25-14.886718-33.25-33.253906 0-18.363281 14.886719-33.25 33.25-33.25 18.367188 0 33.253907 14.886719 33.253907 33.25zm0 0" fill="#fdca74"/><path d="m249.238281 198.597656c-3.445312 0-6.769531.523438-9.894531 1.496094 13.53125 4.214844 23.355469 16.835938 23.355469 31.753906 0 14.917969-9.824219 27.542969-23.355469 31.753906 3.125.976563 6.449219 1.5 9.894531 1.5 18.367188 0 33.253907-14.886718 33.253907-33.253906 0-18.363281-14.886719-33.25-33.253907-33.25zm0 0" fill="#e6af55"/><path d="m367.273438 352.554688c0 18.367187-14.886719 33.253906-33.25 33.253906-18.367188 0-33.253907-14.886719-33.253907-33.253906 0-18.363282 14.886719-33.25 33.253907-33.25 18.363281 0 33.25 14.886718 33.25 33.25zm0 0" fill="#fdca74"/><path d="m334.023438 319.304688c-4.425782 0-8.644532.871093-12.503907 2.4375 12.164063 4.945312 20.746094 16.875 20.746094 30.8125 0 13.941406-8.582031 25.871093-20.746094 30.8125 3.859375 1.570312 8.078125 2.441406 12.503907 2.441406 18.363281 0 33.25-14.886719 33.25-33.253906 0-18.363282-14.886719-33.25-33.25-33.25zm0 0" fill="#e6af55"/><path d="m313.757812 91.496094c0-22.46875-18.28125-40.753906-40.753906-40.753906-22.46875 0-40.753906 18.285156-40.753906 40.753906 0 22.472656 18.285156 40.753906 40.753906 40.753906 22.472656 0 40.753906-18.28125 40.753906-40.753906zm-40.753906 25.75c-14.195312 0-25.75-11.550782-25.75-25.75 0-14.195313 11.554688-25.75 25.75-25.75 14.199219 0 25.75 11.554687 25.75 25.75 0 14.199218-11.550781 25.75-25.75 25.75zm0 0"/><path d="m158.226562 371.066406c22.472657 0 40.753907-18.28125 40.753907-40.753906s-18.28125-40.753906-40.753907-40.753906c-22.472656 0-40.753906 18.28125-40.753906 40.753906s18.28125 40.753906 40.753906 40.753906zm0-66.503906c14.199219 0 25.75 11.550781 25.75 25.75s-11.550781 25.75-25.75 25.75c-14.199218 0-25.75-11.550781-25.75-25.75s11.550782-25.75 25.75-25.75zm0 0"/><path d="m410.6875 254.011719c22.472656 0 40.753906-18.28125 40.753906-40.753907 0-22.472656-18.28125-40.753906-40.753906-40.753906s-40.753906 18.28125-40.753906 40.753906c0 22.472657 18.28125 40.753907 40.753906 40.753907zm0-66.503907c14.199219 0 25.75 11.550782 25.75 25.75 0 14.199219-11.550781 25.75-25.75 25.75s-25.75-11.550781-25.75-25.75c0-14.199218 11.550781-25.75 25.75-25.75zm0 0"/><path d="m208.484375 231.851562c0 22.46875 18.285156 40.753907 40.753906 40.753907 22.472657 0 40.753907-18.285157 40.753907-40.753907 0-22.472656-18.28125-40.757812-40.753907-40.757812-22.46875 0-40.753906 18.285156-40.753906 40.757812zm66.503906 0c0 14.195313-11.550781 25.746094-25.75 25.746094-14.195312 0-25.746093-11.550781-25.746093-25.746094 0-14.199218 11.550781-25.753906 25.746093-25.753906 14.199219 0 25.75 11.554688 25.75 25.753906zm0 0"/><path d="m334.023438 393.308594c22.46875 0 40.753906-18.28125 40.753906-40.75 0-22.472656-18.285156-40.753906-40.753906-40.753906-22.472657 0-40.753907 18.28125-40.753907 40.753906 0 22.46875 18.28125 40.75 40.753907 40.75zm0-66.5c14.195312 0 25.75 11.550781 25.75 25.75 0 14.195312-11.554688 25.746094-25.75 25.746094-14.199219 0-25.75-11.550782-25.75-25.746094 0-14.199219 11.550781-25.75 25.75-25.75zm0 0"/><path d="m481.050781 173.410156c-7.5-23.089844-1.773437-55.160156-17.933593-77.367187-16.34375-22.453125-48.59375-26.746094-68.0625-40.914063-19.25-14.007812-33.25-43.464844-59.929688-52.128906-25.773438-8.367188-54.40625 6.964844-79.125 6.964844-24.800781 0-53.324219-15.339844-79.125-6.964844-26.660156 8.65625-40.710938 38.144531-59.929688 52.128906-19.386718 14.109375-51.757812 18.511719-68.0625 40.914063-16.195312 22.257812-10.40625 54.183593-17.933593 77.367187-7.253907 22.339844-30.949219 44.628906-30.949219 73.125 0 28.46875 23.71875 50.855469 30.949219 73.125 7.496093 23.085938 1.773437 55.160156 17.933593 77.363282 16.34375 22.457031 48.59375 26.746093 68.0625 40.914062 19.25 14.011719 33.25 43.464844 59.929688 52.128906 15.84375 5.144532 32.75 1.335938 49.101562-2.347656 27.28125-6.148438 32.75-6.152344 60.046876 0 42.9375 9.675781 56.769531 7.179688 88.480468-29.222656 15.367188-17.640625 20.238282-22.332032 40.019532-31.074219 3.789062-1.671875 5.503906-6.101563 3.828124-9.894531-1.675781-3.789063-6.105468-5.503906-9.894531-3.828125-22.25 9.832031-28.78125 16.011719-45.269531 34.941406-27.035156 31.03125-35.179688 33.15625-73.867188 24.4375-29.464843-6.636719-37.117187-6.652344-66.644531 0-38.59375 8.695313-46.757812 6.679687-73.867187-24.441406-19.167969-22-24.835938-26.214844-52.183594-37.933594-37.558594-16.09375-42.265625-23.105469-45.96875-63.050781-2.773438-29.910156-5.054688-36.542969-19.816406-61.140625-21.167969-35.265625-21.171875-44.683594 0-79.960938 14.714844-24.515625 17.035156-31.152343 19.816406-61.136719 3.699219-39.921874 8.390625-46.949218 45.96875-63.050781 27.355469-11.722656 33.027344-15.945312 52.183594-37.9375 27.039062-31.035156 35.179687-33.15625 73.867187-24.4375 29.464844 6.636719 37.117188 6.648438 66.644531 0 38.570313-8.691406 46.738282-6.703125 73.867188 24.4375 19.167969 22.003907 24.839844 26.21875 52.183594 37.9375 37.582031 16.101563 42.269531 23.136719 45.96875 63.046875 2.777344 29.945313 5.074218 36.578125 19.816406 61.140625 21.167969 35.269531 21.171875 44.6875 0 79.960938-14.714844 24.519531-17.035156 31.152343-19.816406 61.140625-2.648438 28.574218-4.910156 42.039062-27.242188 54.316406-3.628906 1.996094-4.957031 6.558594-2.960937 10.191406 2 3.628906 6.558593 4.953125 10.191406 2.957032 9.800781-5.386719 16.722656-11.136719 21.785156-18.09375 16.199219-22.253907 10.40625-54.183594 17.933594-77.367188 7.253906-22.335938 30.949219-44.628906 30.949219-73.121094.003906-28.476562-23.714844-50.851562-30.945313-73.125zm0 0"/><path d="m114.136719 137.402344c3.753906-1.746094 5.382812-6.210938 3.636719-9.964844-1.746094-3.757812-6.210938-5.386719-9.964844-3.640625-14.328125 6.664063-23.585938 21.175781-23.585938 36.964844 0 22.46875 18.28125 40.753906 40.753906 40.753906 22.46875 0 40.753907-18.285156 40.753907-40.753906 0-15.789063-9.257813-30.300781-23.585938-36.964844-3.757812-1.746094-8.222656-.117187-9.96875 3.640625-1.746093 3.757812-.117187 8.21875 3.640625 9.964844 9.054688 4.210937 14.90625 13.382812 14.90625 23.355468 0 14.199219-11.550781 25.75-25.746094 25.75-14.199218 0-25.75-11.550781-25.75-25.75 0-9.972656 5.851563-19.144531 14.910157-23.355468zm0 0"/></svg>