<svg width="914" height="613" viewBox="0 0 914 613" fill="none" xmlns="http://www.w3.org/2000/svg">
<g clip-path="url(#clip0)">
<path d="M186.542 284.046L405.099 234.963C413.379 233.104 422.06 234.61 429.23 239.15C436.4 243.69 441.473 250.893 443.333 259.174L462.615 345.035L181.614 408.142L162.332 322.28C160.472 314 161.978 305.319 166.519 298.149C171.059 290.979 178.262 285.906 186.542 284.046Z" fill="#66342E"/>
<path d="M271.313 551.983L255.701 555.489C240.816 558.832 233.223 551.272 227.026 537.331L166.003 411.648L205.031 402.883L271.313 551.983Z" fill="#CDEEF6"/>
<path d="M310.34 543.218L271.313 551.983L205.031 402.883L251.865 392.365L310.34 543.218Z" fill="#92CDDE"/>
<path d="M341.563 536.206L310.34 543.218L251.865 392.365L298.698 381.847L341.563 536.206Z" fill="#CDEEF6"/>
<path d="M443.035 513.418L458.647 509.912C473.532 506.569 477.163 496.488 476.804 481.236L478.227 341.529L439.199 350.294L443.035 513.418Z" fill="#CDEEF6"/>
<path d="M404.007 522.182L443.035 513.418L439.199 350.294L392.365 360.812L404.007 522.182Z" fill="#92CDDE"/>
<path d="M372.785 529.194L404.007 522.182L392.365 360.812L345.532 371.33L372.785 529.194Z" fill="#CDEEF6"/>
<path d="M298.698 381.847L341.563 536.206L372.785 529.194L345.532 371.33L298.698 381.847Z" fill="#92CDDE"/>
<path d="M162.332 322.28L167.403 344.862C168.172 348.681 170.26 352.108 173.301 354.543C176.342 356.978 180.143 358.265 184.038 358.181C186.364 358.059 188.636 357.431 190.695 356.341C192.753 355.25 194.549 353.723 195.956 351.867C197.363 350.01 198.348 347.868 198.841 345.592C199.335 343.315 199.325 340.958 198.813 338.685L195.495 323.909C194.557 320.128 194.979 316.137 196.687 312.636C198.395 309.135 201.28 306.345 204.837 304.757C206.992 303.872 209.314 303.468 211.641 303.573C213.969 303.679 216.245 304.292 218.311 305.368C220.376 306.445 222.182 307.96 223.602 309.807C225.021 311.654 226.021 313.789 226.529 316.062L233.354 346.449C234.123 350.268 236.211 353.695 239.252 356.13C242.293 358.565 246.094 359.853 249.988 359.768C252.315 359.647 254.587 359.019 256.645 357.928C258.704 356.838 260.499 355.311 261.907 353.454C263.314 351.597 264.298 349.456 264.792 347.179C265.285 344.902 265.276 342.545 264.764 340.273L261.445 325.497C260.508 321.716 260.93 317.725 262.638 314.224C264.346 310.722 267.231 307.933 270.788 306.344C272.943 305.459 275.265 305.055 277.592 305.161C279.919 305.267 282.195 305.879 284.261 306.956C286.327 308.033 288.133 309.547 289.552 311.394C290.972 313.242 291.971 315.376 292.48 317.65L294.045 324.62C294.815 328.439 296.902 331.866 299.944 334.301C302.985 336.736 306.785 338.024 310.68 337.939C313.007 337.817 315.278 337.19 317.337 336.099C319.396 335.008 321.191 333.481 322.598 331.625C324.005 329.768 324.99 327.627 325.484 325.35C325.977 323.073 325.967 320.716 325.455 318.444L322.137 303.668C321.199 299.886 321.621 295.896 323.329 292.394C325.037 288.893 327.922 286.104 331.479 284.515C333.634 283.63 335.956 283.226 338.284 283.332C340.611 283.437 342.887 284.05 344.953 285.127C347.019 286.203 348.825 287.718 350.244 289.565C351.664 291.412 352.663 293.547 353.172 295.821L361.749 334.013C362.518 337.832 364.606 341.259 367.647 343.694C370.688 346.129 374.489 347.417 378.384 347.332C380.71 347.211 382.982 346.583 385.041 345.492C387.099 344.402 388.895 342.875 390.302 341.018C391.709 339.161 392.694 337.02 393.187 334.743C393.681 332.466 393.671 330.109 393.159 327.837L381.076 274.033C380.138 270.252 380.56 266.261 382.268 262.76C383.976 259.258 386.861 256.469 390.418 254.88C392.573 253.995 394.895 253.591 397.222 253.697C399.55 253.803 401.826 254.415 403.892 255.492C405.958 256.569 407.763 258.083 409.183 259.93C410.603 261.778 411.602 263.912 412.111 266.186L415.616 281.797C416.386 285.616 418.473 289.043 421.515 291.478C424.556 293.913 428.356 295.2 432.251 295.116C434.578 294.994 436.849 294.366 438.908 293.276C440.967 292.185 442.762 290.658 444.169 288.802C445.576 286.945 446.561 284.803 447.055 282.527C447.548 280.25 447.538 277.893 447.026 275.62L443.333 259.174C441.473 250.893 436.4 243.69 429.23 239.15C422.06 234.61 413.379 233.104 405.099 234.963L186.542 284.046C178.262 285.906 171.059 290.979 166.519 298.149C161.978 305.319 160.472 314 162.332 322.28Z" fill="#EB8CB3"/>
<path d="M374.67 209L202.947 247.565C194.325 249.501 188.906 258.06 190.842 266.682C192.778 275.304 201.337 280.724 209.959 278.787L381.682 240.222C390.304 238.286 395.723 229.727 393.787 221.105C391.851 212.483 383.292 207.064 374.67 209Z" fill="#CDEEF6"/>
<path d="M352.047 181.283L211.547 212.837C202.925 214.773 197.505 223.332 199.441 231.954C201.378 240.576 209.937 245.995 218.558 244.059L359.059 212.506C367.681 210.57 373.1 202.011 371.164 193.389C369.228 184.767 360.669 179.347 352.047 181.283Z" fill="#92CDDE"/>
<path d="M219.352 211.084C219.352 211.084 194.976 175.562 280.838 156.279C280.838 156.279 345.035 150.061 334.518 103.228C334.518 103.228 378.011 150.855 336.436 184.789L219.352 211.084Z" fill="#CDEEF6"/>
<path d="M219.352 211.084L188.13 218.096C177.779 220.42 166.929 218.538 157.966 212.862C149.003 207.187 142.662 198.183 140.337 187.832L138.584 180.027L162.001 174.768C183.552 169.928 212.759 181.727 217.599 203.278L219.352 211.084Z" fill="#55B56A"/>
<path d="M226.992 135.575C229.033 144.663 228.93 154.102 226.692 163.143C224.453 172.185 220.139 180.581 214.093 187.667C205.598 183.847 198.109 178.101 192.219 170.885C186.329 163.669 182.2 155.181 180.159 146.092C175.319 124.541 193.058 94 193.058 94C193.058 94 222.152 114.023 226.992 135.575Z" fill="#55B56A"/>
<path d="M288.643 154.526C301.576 151.622 309.706 138.783 306.801 125.851C303.897 112.918 291.058 104.788 278.126 107.693C265.193 110.597 257.063 123.436 259.968 136.368C262.872 149.301 275.711 157.431 288.643 154.526Z" fill="#DA1C4B"/>
<path d="M154.526 324.033L172.056 402.089L164.25 403.842C163.073 404.106 161.97 404.633 161.025 405.383C160.08 406.133 159.317 407.087 158.792 408.174C158.268 409.261 157.997 410.453 157.999 411.659C158 412.866 158.275 414.057 158.802 415.142L219.727 540.61C225.127 552.754 234.927 568.353 257.454 563.294L460.4 517.717C482.926 512.658 485.115 494.366 484.809 481.316L486.231 341.61C486.243 340.403 485.982 339.209 485.467 338.117C484.953 337.026 484.198 336.065 483.26 335.306C482.321 334.548 481.223 334.012 480.048 333.737C478.873 333.463 477.651 333.459 476.474 333.724L468.668 335.477L451.138 257.421C448.802 247.077 442.459 238.081 433.499 232.408C424.54 226.735 413.696 224.846 403.346 227.158L401.91 227.48C402.352 224.202 402.101 220.867 401.171 217.693C400.242 214.518 398.656 211.574 396.515 209.052C394.375 206.53 391.728 204.486 388.746 203.052C385.765 201.619 382.515 200.829 379.209 200.732C379.771 197.395 379.615 193.977 378.75 190.705C377.886 187.433 376.334 184.383 374.197 181.759C372.06 179.134 369.388 176.996 366.359 175.487C363.33 173.977 360.014 173.131 356.633 173.005C359.87 166.96 361.797 160.3 362.287 153.459C364.406 124.45 341.399 98.8944 340.42 97.8189C339.229 96.5163 337.641 95.644 335.903 95.3378C334.165 95.0315 332.375 95.3086 330.811 96.1258C329.246 96.943 327.996 98.2545 327.255 99.856C326.514 101.458 326.323 103.259 326.712 104.981C327.855 108.908 328.109 113.041 327.456 117.08C326.802 121.118 325.259 124.96 322.936 128.327C320.715 131.312 318.024 133.916 314.968 136.037C315.688 131.646 315.474 127.153 314.34 122.85C313.207 118.547 311.179 114.532 308.389 111.066C305.599 107.599 302.109 104.76 298.148 102.734C294.187 100.707 289.843 99.5378 285.4 99.3029C285.243 93.9698 287.066 88.7674 290.517 84.6982C293.967 80.629 298.802 77.9809 304.089 77.2641L300.583 61.653C291.195 63.237 282.757 68.3237 276.973 75.8864C271.188 83.449 268.489 92.9245 269.418 102.4C264.843 104.588 260.858 107.841 257.798 111.885C254.738 115.93 252.691 120.648 251.829 125.646C250.967 130.644 251.314 135.776 252.842 140.612C254.371 145.448 257.035 149.847 260.612 153.442C251.649 156.095 242.974 159.639 234.717 164.021C237.05 154.093 237.078 143.762 234.798 133.822C229.334 109.492 198.886 88.2963 197.587 87.4072C196.669 86.8187 195.643 86.4181 194.569 86.2287C193.495 86.0393 192.394 86.0649 191.33 86.3039C190.265 86.5429 189.259 86.9906 188.369 87.6211C187.479 88.2516 186.723 89.0524 186.144 89.9771C185.351 91.336 166.889 123.515 172.353 147.845C173.783 154.262 176.139 160.436 179.347 166.174C172.982 165.359 166.525 165.625 160.248 166.962L136.831 172.221C134.761 172.686 132.96 173.954 131.825 175.747C130.69 177.54 130.314 179.71 130.779 181.78L132.532 189.585C135.333 202 142.944 212.796 153.697 219.604C164.449 226.413 177.463 228.677 189.883 225.901L191.319 225.579C190.51 231.371 191.937 237.254 195.309 242.032C192.361 243.533 189.762 245.637 187.68 248.207C185.597 250.778 184.079 253.757 183.222 256.952C182.366 260.148 182.19 263.487 182.708 266.754C183.225 270.022 184.424 273.144 186.226 275.918L184.789 276.241C174.445 278.577 165.45 284.92 159.776 293.88C154.103 302.839 152.215 313.683 154.526 324.033ZM253.948 547.683C245.768 549.52 240.489 547.918 234.227 533.836L177.615 417.239L200.383 412.126L260.037 546.316L253.948 547.683ZM275.96 542.74L216.307 408.55L246.897 401.68L299.525 537.448L275.96 542.74ZM315.308 533.903L262.68 398.136L293.028 391.32L331.606 530.243L315.308 533.903ZM363.609 523.056L347.217 526.737L308.639 387.814L339.081 380.978L363.609 523.056ZM187.667 398.583L180.354 366.018C181.723 366.196 183.107 366.245 184.486 366.164C187.972 365.978 191.375 365.033 194.458 363.396C197.542 361.759 200.231 359.469 202.338 356.686C204.445 353.903 205.92 350.693 206.659 347.282C207.398 343.87 207.385 340.338 206.619 336.932L203.3 322.156C202.793 320.227 202.965 318.181 203.789 316.364C204.613 314.546 206.038 313.068 207.824 312.179C208.903 311.726 210.068 311.516 211.237 311.563C212.407 311.61 213.551 311.913 214.59 312.451C215.63 312.988 216.539 313.747 217.253 314.674C217.967 315.601 218.469 316.673 218.724 317.815L225.548 348.202C226.744 353.863 229.892 358.923 234.442 362.497C238.992 366.071 244.654 367.931 250.437 367.752C253.923 367.565 257.326 366.621 260.409 364.984C263.492 363.346 266.181 361.056 268.288 358.273C270.396 355.49 271.87 352.281 272.61 348.869C273.349 345.457 273.335 341.926 272.569 338.52L269.251 323.744C268.742 321.814 268.914 319.768 269.738 317.95C270.562 316.133 271.987 314.655 273.774 313.766C274.864 313.32 276.037 313.116 277.213 313.169C278.389 313.222 279.539 313.531 280.583 314.074C281.611 314.612 282.509 315.368 283.215 316.288C283.922 317.208 284.42 318.271 284.674 319.403L286.24 326.373C287.435 332.034 290.584 337.094 295.134 340.668C299.683 344.242 305.345 346.102 311.128 345.923C314.614 345.736 318.018 344.791 321.101 343.154C324.184 341.517 326.873 339.227 328.98 336.444C331.087 333.661 332.562 330.452 333.301 327.04C334.041 323.628 334.027 320.096 333.261 316.691L329.943 301.915C329.435 299.985 329.608 297.939 330.431 296.122C331.255 294.305 332.68 292.827 334.466 291.937C335.555 291.491 336.729 291.287 337.905 291.34C339.08 291.393 340.231 291.702 341.275 292.244C342.303 292.783 343.201 293.538 343.907 294.459C344.614 295.379 345.111 296.442 345.366 297.573L353.943 335.766C355.139 341.427 358.287 346.487 362.837 350.061C367.387 353.635 373.049 355.495 378.832 355.316C382.324 355.121 385.731 354.168 388.816 352.522C391.902 350.876 394.592 348.577 396.698 345.785C398.795 343.007 400.263 339.806 401 336.404C401.737 333.002 401.725 329.481 400.964 326.084L388.881 272.28C388.372 270.35 388.544 268.304 389.368 266.486C390.192 264.669 391.618 263.191 393.405 262.302C394.494 261.855 395.667 261.65 396.843 261.704C398.019 261.757 399.17 262.066 400.214 262.61C401.241 263.148 402.139 263.904 402.846 264.824C403.552 265.744 404.05 266.807 404.305 267.939L407.811 283.55C409.006 289.211 412.155 294.271 416.705 297.845C421.254 301.419 426.916 303.279 432.699 303.099C436.776 302.836 440.718 301.533 444.148 299.315L453.057 338.983L187.667 398.583ZM395.534 515.886L379.236 519.546L354.708 377.468L385.056 370.653L395.534 515.886ZM434.882 507.05L411.317 512.342L400.839 367.108L431.429 360.238L434.882 507.05ZM470.121 351.549L468.804 481.393C469.161 496.563 465.074 500.269 456.894 502.106L450.805 503.474L447.352 356.662L470.121 351.549ZM363.359 195.142C363.824 197.212 363.447 199.382 362.312 201.174C361.177 202.967 359.376 204.235 357.306 204.7L216.805 236.253C214.735 236.718 212.565 236.342 210.773 235.207C208.98 234.072 207.712 232.271 207.247 230.201C206.782 228.131 207.159 225.961 208.294 224.168C209.429 222.375 211.229 221.107 213.3 220.642L353.8 189.089C355.87 188.624 358.04 189.001 359.833 190.136C361.625 191.271 362.894 193.072 363.359 195.142ZM279.878 115.498C282.966 114.805 286.19 115.043 289.142 116.181C292.095 117.32 294.643 119.309 296.466 121.896C298.288 124.484 299.302 127.553 299.38 130.717C299.457 133.88 298.595 136.996 296.902 139.669C295.209 142.343 292.762 144.454 289.869 145.737C286.976 147.019 283.767 147.415 280.649 146.874C277.531 146.333 274.644 144.88 272.352 142.698C270.06 140.516 268.467 137.703 267.773 134.615C266.843 130.475 267.596 126.135 269.867 122.55C272.137 118.965 275.738 116.428 279.878 115.498ZM282.146 164.185C286.99 163.63 320.365 159.119 335.841 137.744C338.026 134.746 339.797 131.466 341.104 127.994C344.868 135.551 346.664 143.935 346.325 152.371C345.888 157.246 344.461 161.982 342.132 166.287C339.803 170.593 336.62 174.378 332.778 177.412L225.405 201.525C225.109 200.292 224.745 199.076 224.316 197.883C224.447 196.619 224.744 195.378 225.201 194.192C227.959 187.16 239.036 173.94 282.146 164.185ZM195.803 106.223C204.691 113.706 216.619 125.892 219.187 137.328C220.747 144.177 220.898 151.272 219.631 158.181C218.363 165.091 215.704 171.67 211.814 177.52C205.804 173.886 200.593 169.073 196.494 163.37C192.395 157.668 189.493 151.194 187.964 144.339C185.407 132.951 190.987 116.8 195.803 106.223ZM186.377 210.29C178.096 212.15 169.416 210.644 162.246 206.103C155.075 201.563 150.002 194.36 148.143 186.079L163.754 182.574C179.724 178.987 201.556 186.604 208.212 200.655C208.273 202.204 208.447 203.746 208.732 205.269L186.377 210.29ZM204.7 255.371L376.423 216.805C378.493 216.341 380.663 216.717 382.456 217.852C384.248 218.987 385.517 220.788 385.982 222.858C386.447 224.928 386.07 227.098 384.935 228.891C383.8 230.684 381.999 231.952 379.929 232.417L208.206 270.982C206.136 271.447 203.966 271.07 202.173 269.935C200.381 268.8 199.113 266.999 198.648 264.929C198.183 262.859 198.559 260.689 199.694 258.896C200.829 257.104 202.63 255.835 204.7 255.371ZM406.852 242.769C413.062 241.374 419.572 242.504 424.95 245.909C430.328 249.314 434.133 254.716 435.527 260.927L439.221 277.373C439.479 278.514 439.483 279.698 439.234 280.842C438.985 281.985 438.488 283.06 437.778 283.99C437.068 284.92 436.163 285.683 435.126 286.226C434.09 286.768 432.947 287.077 431.778 287.129C429.783 287.089 427.863 286.362 426.341 285.071C424.819 283.781 423.788 282.005 423.422 280.044L419.916 264.433C419.153 261.026 417.656 257.826 415.529 255.057C413.402 252.288 410.697 250.016 407.602 248.401C404.507 246.785 401.096 245.864 397.608 245.702C394.12 245.54 390.639 246.141 387.408 247.464C382.102 249.775 377.778 253.878 375.194 259.056C372.609 264.234 371.928 270.156 373.27 275.786L385.353 329.59C385.611 330.731 385.616 331.915 385.367 333.058C385.117 334.201 384.62 335.276 383.911 336.206C383.201 337.136 382.296 337.9 381.259 338.442C380.222 338.985 379.079 339.293 377.91 339.346C375.915 339.305 373.995 338.578 372.473 337.288C370.952 335.997 369.921 334.222 369.555 332.26L360.977 294.068C360.214 290.661 358.716 287.463 356.589 284.695C354.461 281.927 351.756 279.656 348.661 278.041C345.566 276.426 342.156 275.506 338.669 275.345C335.182 275.183 331.702 275.784 328.471 277.106C323.166 279.417 318.844 283.519 316.259 288.695C313.674 293.872 312.992 299.792 314.331 305.42L317.65 320.196C317.903 321.328 317.908 322.502 317.663 323.636C317.418 324.77 316.929 325.837 316.23 326.763C315.519 327.701 314.611 328.472 313.571 329.023C312.53 329.574 311.382 329.891 310.207 329.952C308.212 329.912 306.292 329.185 304.77 327.895C303.248 326.604 302.217 324.829 301.851 322.867L300.286 315.897C299.523 312.49 298.026 309.29 295.899 306.521C293.772 303.752 291.067 301.48 287.971 299.865C284.876 298.249 281.466 297.328 277.978 297.166C274.49 297.004 271.009 297.605 267.777 298.928C262.472 301.239 258.148 305.342 255.563 310.52C252.979 315.698 252.298 321.62 253.64 327.25L256.958 342.026C257.212 343.158 257.216 344.331 256.971 345.465C256.726 346.599 256.237 347.666 255.538 348.592C254.827 349.53 253.919 350.302 252.879 350.853C251.839 351.403 250.691 351.721 249.515 351.782C247.52 351.741 245.6 351.014 244.078 349.724C242.556 348.433 241.525 346.658 241.159 344.696L234.335 314.309C233.571 310.903 232.073 307.704 229.946 304.936C227.819 302.168 225.114 299.898 222.019 298.283C218.924 296.668 215.514 295.748 212.027 295.586C208.54 295.425 205.059 296.026 201.828 297.348C196.524 299.658 192.201 303.761 189.616 308.937C187.031 314.113 186.349 320.034 187.689 325.662L191.007 340.438C191.261 341.57 191.265 342.744 191.02 343.878C190.775 345.012 190.286 346.079 189.588 347.005C188.877 347.944 187.97 348.716 186.929 349.266C185.889 349.817 184.74 350.134 183.564 350.194C181.646 350.166 179.792 349.499 178.297 348.297C176.802 347.096 175.75 345.429 175.31 343.562L170.137 320.527C168.743 314.317 169.872 307.807 173.277 302.429C176.683 297.051 182.085 293.246 188.295 291.852L406.852 242.769Z" fill="black"/>
</g>
<g clip-path="url(#clip1)">
<path d="M688.073 539.555L495.611 512.401C491.62 511.838 487.988 509.789 485.443 506.664C482.897 503.538 481.624 499.567 481.88 495.545L494.155 302.136L747.645 337.9L705.933 527.155C705.065 531.092 702.744 534.556 699.433 536.854C696.122 539.153 692.065 540.118 688.073 539.555Z" fill="#EB423F"/>
<path d="M541.685 308.842L520.548 515.92L663.136 536.037L700.116 331.194L541.685 308.842Z" fill="#E9EEF2"/>
<path d="M652.586 324.488L615.607 529.331L568.078 522.625L589.214 315.547L652.586 324.488Z" fill="#EB423F"/>
<path d="M747.645 337.9C755.305 338.982 763.106 338.465 770.556 336.382C778.007 334.299 784.945 330.695 790.933 325.797C796.921 320.899 801.829 314.814 805.348 307.925C808.867 301.036 810.921 293.492 811.38 285.77C811.838 278.047 810.692 270.314 808.013 263.057C805.334 255.799 801.18 249.176 795.814 243.604C790.447 238.032 783.985 233.632 776.833 230.682C769.682 227.732 761.997 226.295 754.263 226.463C748.211 201.553 734.821 179.032 715.826 161.816C696.832 144.601 673.107 133.482 647.723 129.901C622.339 126.32 596.464 130.44 573.448 141.729C550.432 153.017 531.334 170.955 518.626 193.219C511.241 190.917 503.458 190.172 495.77 191.028C488.081 191.884 480.654 194.324 473.955 198.194C467.257 202.064 461.433 207.28 456.85 213.513C452.268 219.746 449.027 226.86 447.331 234.408C445.635 241.956 445.522 249.773 446.997 257.367C448.473 264.961 451.507 272.167 455.906 278.53C460.305 284.893 465.975 290.276 472.558 294.339C479.142 298.402 486.495 301.057 494.155 302.136L747.645 337.9Z" fill="#95573A"/>
<path d="M645.488 145.744C662.988 148.213 679.175 136.028 681.644 118.528C684.113 101.028 671.928 84.8403 654.429 82.3713C636.929 79.9023 620.741 92.0873 618.272 109.587C615.803 127.087 627.988 143.275 645.488 145.744Z" fill="#EB423F"/>
<path d="M615.116 246.489C623.866 247.723 631.96 241.631 633.194 232.881C634.428 224.131 628.336 216.037 619.586 214.802C610.836 213.568 602.742 219.66 601.508 228.41C600.273 237.16 606.366 245.254 615.116 246.489Z" fill="#F7CC38"/>
<path d="M729.468 294.939C738.218 296.173 746.312 290.081 747.547 281.331C748.781 272.581 742.689 264.487 733.939 263.253C725.189 262.018 717.095 268.111 715.861 276.861C714.626 285.611 720.719 293.705 729.468 294.939Z" fill="#F7CC38"/>
<path d="M523.508 265.881C532.258 267.116 540.352 261.023 541.587 252.273C542.821 243.523 536.729 235.429 527.979 234.195C519.229 232.96 511.135 239.053 509.9 247.803C508.666 256.553 514.758 264.647 523.508 265.881Z" fill="#F7CC38"/>
<path d="M514.842 183.993C513.534 183.724 512.226 183.497 510.92 183.313C494.752 181.029 478.322 185.012 464.995 194.446C451.667 203.88 442.451 218.053 439.231 234.061C436.012 250.069 439.034 266.702 447.679 280.555C456.323 294.408 469.936 304.432 485.73 308.575L473.895 495.039C473.538 501.068 475.457 507.01 479.271 511.692C483.086 516.374 488.518 519.454 494.494 520.323L686.956 547.476C692.939 548.295 699.012 546.838 703.972 543.394C708.933 539.95 712.421 534.769 713.746 528.878L753.96 346.418C770.284 346.806 786.139 340.94 798.278 330.019C810.418 319.099 817.924 303.951 819.259 287.677C820.595 271.403 815.658 255.234 805.461 242.481C795.265 229.728 780.578 221.355 764.409 219.076C763.104 218.892 761.783 218.748 760.456 218.646C754.974 199.694 745.422 182.167 732.466 167.289C719.51 152.41 703.462 140.54 685.443 132.506C690.303 123.169 691.285 112.293 688.176 102.237C685.067 92.1804 678.118 83.7558 668.837 78.7911C672.192 77.5952 675.792 77.2554 679.311 77.8026C681.412 78.099 683.544 77.5487 685.24 76.2727C686.935 74.9967 688.054 73.0996 688.35 70.9987C688.646 68.8977 688.096 66.7651 686.82 65.0699C685.544 63.3748 683.647 62.2559 681.546 61.9595C667.919 60.0369 655.626 65.0901 649.713 74.0601C643.809 74.0939 637.986 75.4348 632.662 77.9867C627.337 80.5385 622.644 84.2378 618.92 88.819C615.195 93.4001 612.531 98.7493 611.12 104.482C609.708 110.215 609.584 116.19 610.755 121.976C591.232 124.755 572.545 131.739 555.985 142.446C539.425 153.154 525.387 167.33 514.842 183.993ZM489.863 496.052L501.592 311.264L532.943 315.688L513.432 506.836L496.727 504.48C494.735 504.189 492.925 503.163 491.654 501.602C490.383 500.042 489.744 498.061 489.863 496.052ZM690.766 337.954L656.629 527.039L624.957 522.571L659.093 333.485L690.766 337.954ZM609.1 520.334L576.82 515.779L596.331 324.631L643.238 331.249L609.1 520.334ZM580.472 322.393L560.961 513.542L529.291 509.074L548.802 317.925L580.472 322.393ZM698.121 525.433C697.679 527.397 696.517 529.124 694.863 530.272C693.21 531.42 691.185 531.906 689.191 531.633L672.486 529.277L706.623 340.191L737.975 344.615L698.121 525.433ZM645.197 90.5378L644.272 97.0968C643.975 99.1977 644.526 101.33 645.802 103.026C647.078 104.721 648.975 105.84 651.076 106.136C653.177 106.432 655.309 105.882 657.005 104.606C658.7 103.33 659.819 101.433 660.115 99.332L661.04 92.773C666.062 95.3873 669.998 99.6928 672.152 104.928C674.307 110.164 674.541 115.993 672.813 121.384C671.086 126.776 667.508 131.383 662.712 134.391C657.916 137.4 652.211 138.616 646.605 137.826C640.999 137.035 635.853 134.287 632.077 130.069C628.3 125.851 626.137 120.434 625.968 114.775C625.8 109.116 627.637 103.58 631.156 99.1444C634.675 94.7092 639.648 91.6607 645.197 90.5378ZM566.474 154.739C581.916 145.134 599.338 139.163 617.424 137.276C620.567 141.697 624.578 145.43 629.212 148.248C633.845 151.066 639.005 152.91 644.376 153.667C649.746 154.424 655.215 154.078 660.447 152.65C665.679 151.223 670.565 148.744 674.807 145.364C692.506 152.481 708.246 163.726 720.716 178.162C733.185 192.598 742.022 209.807 746.49 228.352C746.919 230.122 747.94 231.692 749.383 232.803C750.827 233.914 752.606 234.5 754.427 234.463C761.057 234.317 767.646 235.546 773.777 238.073C779.908 240.601 785.45 244.371 790.051 249.147C794.652 253.923 798.214 259.6 800.512 265.821C802.809 272.043 803.793 278.672 803.4 285.292C803.008 291.913 801.248 298.38 798.231 304.286C795.214 310.192 791.006 315.408 785.873 319.607C780.739 323.805 774.791 326.895 768.404 328.68C762.017 330.465 755.329 330.907 748.763 329.978L495.273 294.214C488.706 293.29 482.402 291.015 476.758 287.533C471.114 284.05 466.253 279.436 462.481 273.981C458.709 268.526 456.109 262.349 454.844 255.839C453.579 249.329 453.677 242.627 455.131 236.157C456.585 229.686 459.365 223.588 463.294 218.245C467.223 212.902 472.216 208.432 477.959 205.116C483.702 201.799 490.07 199.709 496.662 198.976C503.253 198.244 509.925 198.886 516.256 200.86C517.995 201.398 519.866 201.326 521.56 200.658C523.254 199.99 524.669 198.764 525.574 197.184C535.487 179.871 549.54 165.287 566.474 154.739Z" fill="black"/>
<path d="M613.998 254.41C618.698 255.073 623.49 254.328 627.766 252.268C632.043 250.208 635.612 246.926 638.023 242.837C640.435 238.749 641.58 234.037 641.313 229.298C641.046 224.558 639.38 220.005 636.526 216.212C633.671 212.42 629.756 209.559 625.276 207.992C620.795 206.424 615.95 206.221 611.354 207.407C606.758 208.593 602.617 211.115 599.454 214.655C596.291 218.194 594.249 222.592 593.586 227.293C592.705 233.594 594.359 239.988 598.185 245.072C602.012 250.156 607.699 253.514 613.998 254.41ZM618.469 222.724C620.035 222.945 621.501 223.626 622.681 224.68C623.861 225.734 624.702 227.115 625.097 228.647C625.492 230.179 625.425 231.794 624.902 233.287C624.38 234.781 623.426 236.086 622.162 237.037C620.898 237.989 619.38 238.544 617.8 238.633C616.22 238.722 614.65 238.34 613.287 237.536C611.924 236.733 610.83 235.543 610.143 234.117C609.457 232.692 609.208 231.095 609.429 229.528C609.728 227.428 610.847 225.532 612.542 224.257C614.237 222.981 616.368 222.43 618.469 222.724Z" fill="black"/>
<path d="M728.351 302.861C733.051 303.524 737.842 302.778 742.119 300.718C746.395 298.658 749.965 295.376 752.376 291.288C754.788 287.199 755.932 282.487 755.666 277.748C755.399 273.009 753.733 268.455 750.879 264.663C748.024 260.87 744.109 258.009 739.628 256.442C735.148 254.875 730.303 254.671 725.707 255.857C721.111 257.043 716.97 259.566 713.807 263.105C710.644 266.645 708.602 271.043 707.939 275.743C707.057 282.045 708.711 288.439 712.538 293.522C716.365 298.606 722.051 301.964 728.351 302.861ZM732.821 271.174C734.388 271.395 735.854 272.076 737.034 273.13C738.214 274.184 739.055 275.565 739.45 277.097C739.845 278.629 739.777 280.244 739.255 281.737C738.733 283.231 737.779 284.536 736.515 285.488C735.251 286.439 733.733 286.994 732.153 287.083C730.573 287.172 729.003 286.791 727.64 285.987C726.277 285.183 725.183 283.993 724.496 282.568C723.81 281.142 723.561 279.545 723.782 277.978C724.081 275.878 725.2 273.983 726.895 272.707C728.589 271.432 730.721 270.88 732.821 271.174Z" fill="black"/>
<path d="M501.979 246.685C501.316 251.385 502.061 256.177 504.121 260.453C506.181 264.73 509.463 268.299 513.551 270.711C517.64 273.122 522.352 274.267 527.091 274C531.831 273.734 536.384 272.068 540.177 269.213C543.969 266.358 546.83 262.443 548.397 257.963C549.965 253.482 550.168 248.637 548.982 244.041C547.796 239.445 545.274 235.304 541.734 232.141C538.194 228.978 533.796 226.936 529.096 226.273C522.795 225.392 516.401 227.046 511.317 230.872C506.233 234.699 502.875 240.386 501.979 246.685ZM526.861 242.116C528.428 242.337 529.894 243.018 531.074 244.072C532.254 245.127 533.094 246.507 533.49 248.039C533.885 249.571 533.817 251.186 533.295 252.68C532.772 254.173 531.819 255.478 530.555 256.43C529.29 257.381 527.772 257.937 526.193 258.025C524.613 258.114 523.042 257.733 521.679 256.929C520.317 256.125 519.223 254.935 518.536 253.51C517.849 252.084 517.601 250.487 517.822 248.92C518.121 246.821 519.24 244.925 520.935 243.649C522.629 242.374 524.76 241.822 526.861 242.116Z" fill="black"/>
<path d="M649.135 291.684C650.176 291.833 651.235 291.774 652.252 291.511C653.27 291.249 654.226 290.788 655.064 290.155L673.143 276.547C674.838 275.271 675.957 273.374 676.253 271.273C676.549 269.172 675.999 267.039 674.723 265.344C673.447 263.649 671.55 262.53 669.449 262.233C667.348 261.937 665.215 262.487 663.52 263.763L645.442 277.371C644.178 278.323 643.224 279.628 642.701 281.121C642.179 282.615 642.111 284.23 642.506 285.762C642.902 287.294 643.743 288.674 644.923 289.729C646.103 290.783 647.569 291.463 649.135 291.684Z" fill="black"/>
<path d="M574.292 192.254C575.332 192.402 576.392 192.343 577.409 192.081C578.427 191.818 579.382 191.357 580.221 190.724L598.299 177.116C599.994 175.84 601.113 173.943 601.41 171.842C601.706 169.741 601.156 167.608 599.88 165.913C598.604 164.218 596.707 163.099 594.606 162.802C592.505 162.506 590.372 163.056 588.677 164.332L570.598 177.94C569.334 178.892 568.381 180.197 567.858 181.69C567.336 183.184 567.268 184.799 567.663 186.331C568.058 187.863 568.899 189.244 570.079 190.298C571.259 191.352 572.725 192.033 574.292 192.254Z" fill="black"/>
<path d="M686.723 213.829C687.355 214.668 688.146 215.375 689.051 215.909C689.956 216.443 690.957 216.793 691.998 216.94C693.038 217.086 694.097 217.027 695.114 216.764C696.132 216.502 697.087 216.041 697.927 215.41C698.766 214.778 699.473 213.987 700.006 213.082C700.54 212.177 700.89 211.176 701.037 210.135C701.184 209.095 701.124 208.036 700.862 207.019C700.599 206.002 700.139 205.046 699.507 204.207L685.899 186.128C684.623 184.433 682.726 183.314 680.625 183.018C678.524 182.721 676.391 183.272 674.696 184.548C673.001 185.824 671.882 187.721 671.586 189.822C671.289 191.923 671.84 194.056 673.116 195.751L686.723 213.829Z" fill="black"/>
</g>
<defs>
<clipPath id="clip0">
<rect x="0.464966" y="112.654" width="512" height="512" transform="rotate(-12.6573 0.464966 112.654)" fill="white"/>
</clipPath>
<clipPath id="clip1">
<rect x="406.527" y="7" width="512" height="512" transform="rotate(8.03057 406.527 7)" fill="white"/>
</clipPath>
</defs>
</svg>
