<svg height="512pt" viewBox="0 0 512.00033 512" width="512pt" xmlns="http://www.w3.org/2000/svg"><path d="m256 7.519531c-137.230469 0-248.476562 111.246094-248.476562 248.472657 0 137.230468 111.246093 248.476562 248.476562 248.476562s248.476562-111.246094 248.476562-248.476562c0-137.226563-111.246093-248.472657-248.476562-248.472657zm0 336.730469c-48.742188 0-88.253906-39.515625-88.253906-88.257812 0-48.742188 39.511718-88.253907 88.253906-88.253907s88.253906 39.511719 88.253906 88.253907c0 48.742187-39.511718 88.257812-88.253906 88.257812zm0 0" fill="#fdca74"/><path d="m256 7.519531c-10.296875 0-20.445312.636719-30.414062 1.851563 122.882812 15 218.0625 119.691406 218.0625 246.621094 0 126.933593-95.179688 231.625-218.0625 246.621093 9.96875 1.21875 20.117187 1.855469 30.414062 1.855469 137.230469 0 248.476562-111.246094 248.476562-248.476562 0-137.226563-111.246093-248.472657-248.476562-248.472657zm0 0" fill="#e6af55"/><path d="m256 7.519531c-123.332031 0-225.65625 89.859375-245.121094 207.675781 38.085938 4.304688 39.207032 81.792969 79.46875 81.792969 42.683594 0 42-88.605469 87.300782-81.640625 14.703124-28.285156 44.269531-47.609375 78.351562-47.609375s63.648438 19.320313 78.351562 47.605469c45.355469-6.957031 44.515626 81.644531 87.296876 81.644531 40.261718 0 41.386718-77.488281 79.472656-81.792969-19.464844-117.816406-121.789063-207.675781-245.121094-207.675781zm0 0" fill="#a64f3b"/><path d="m225.59375 9.375c122.878906 15.003906 218.054688 119.691406 218.054688 246.621094 0 11.234375-.761719 22.292968-2.207032 33.132812 22.339844-19.804687 29.085938-70.472656 59.679688-73.933594-21.539063-130.386718-142.199219-222.03125-275.527344-205.820312zm0 0" fill="#914534"/><path d="m107.980469 193.628906h-35.996094c-4.140625 0-7.496094 3.359375-7.496094 7.5s3.355469 7.5 7.496094 7.5h35.996094c4.144531 0 7.5-3.359375 7.5-7.5s-3.355469-7.5-7.5-7.5zm0 0"/><path d="m121.148438 143.96875v-35.996094c0-4.140625-3.359376-7.5-7.5-7.5-4.140626 0-7.5 3.359375-7.5 7.5v35.996094c0 4.140625 3.359374 7.5 7.5 7.5 4.140624 0 7.5-3.359375 7.5-7.5zm0 0"/><path d="m338.921875 73.871094-25.453125 25.453125c-2.929688 2.929687-2.929688 7.679687 0 10.605469 2.925781 2.929687 7.675781 2.929687 10.605469 0l25.453125-25.453126c2.925781-2.929687 2.925781-7.675781 0-10.605468-2.929688-2.925782-7.679688-2.925782-10.605469 0zm0 0"/><path d="m170.148438 95.214844c-2.925782 2.929687-2.925782 7.679687 0 10.605468l25.457031 25.453126c2.925781 2.929687 7.675781 2.929687 10.601562 0 2.929688-2.929688 2.929688-7.675782 0-10.605469l-25.453125-25.453125c-2.925781-2.929688-7.675781-2.929688-10.605468 0zm0 0"/><path d="m229.304688 54.382812c-4.140626 0-7.5 3.355469-7.5 7.5 0 4.140626 3.359374 7.5 7.5 7.5h35.996093c4.140625 0 7.5-3.359374 7.5-7.5 0-4.144531-3.359375-7.5-7.5-7.5zm0 0"/><path d="m376.789062 134.238281v35.996094c0 4.140625 3.359376 7.5 7.5 7.5 4.140626 0 7.5-3.359375 7.5-7.5v-35.996094c0-4.140625-3.359374-7.5-7.5-7.5-4.140624 0-7.5 3.359375-7.5 7.5zm0 0"/><path d="m461.644531 193.703125c2.929688-2.929687 2.929688-7.675781 0-10.605469-2.925781-2.925781-7.675781-2.925781-10.605469 0l-25.453124 25.453125c-2.925782 2.929688-2.925782 7.679688 0 10.605469 1.464843 1.464844 3.386718 2.199219 5.304687 2.199219 5.476563 0 5.277344-3.222657 30.753906-27.652344zm0 0"/><path d="m436.96875 74.972656c-98.574219-98.570312-260.652344-101.347656-362.003906 0-105.335938 105.339844-97.882813 275.699219 11.148437 372.484375 3.097657 2.75 7.835938 2.464844 10.585938-.632812 2.75-3.097657 2.46875-7.835938-.628907-10.585938-59.699218-52.992187-89.367187-132.152343-79.066406-211.460937 25.949219 13.394531 30.976563 79.695312 73.3125 79.695312 43.246094 0 48.304688-70.738281 75.507813-80.8125-22.40625 62.3125 24.121093 128.070313 90.144531 128.070313 65.976562 0 112.570312-65.707031 90.140625-128.074219 26.101563 9.644531 31.363281 74.027344 69.5625 80.320312 4.082031.671876 7.945313-2.09375 8.617187-6.179687.675782-4.085937-2.09375-7.945313-6.179687-8.621094-31.375-5.167969-34.4375-82.84375-79.589844-81.746093-37.289062-63.425782-128.398437-62.4375-165.101562.003906-46.601563-1.167969-48.480469 82.039062-83.101563 82.039062-31.457031 0-35.4375-67.640625-70.824218-79.984375 21.800781-111.101562 119.914062-194.488281 236.476562-194.488281 116.207031 0 214.605469 83.023438 236.476562 194.488281-27.671874 9.652344-35.550781 51.773438-53.113281 71.132813-2.78125 3.070312-2.550781 7.8125.519531 10.59375 3.066407 2.78125 7.808594 2.550781 10.589844-.515625 17.886719-19.71875 26.105469-56.4375 44.492188-65.921875 18.789062 144.71875-94.324219 272.175781-238.964844 272.175781-49.898438 0-97.78125-15.125-138.464844-43.742187-3.386718-2.382813-8.066406-1.570313-10.449218 1.820312-2.382813 3.386719-1.570313 8.0625 1.820312 10.449219 99.847656 70.230469 238.519531 61.070312 328.09375-28.5 100.035156-100.039063 100.046875-261.957031 0-362.007813zm-181 261.761719c-44.53125 0-80.757812-36.226563-80.757812-80.757813 0-45.253906 37.039062-81.113281 81.574218-80.753906 44.390625.472656 79.9375 36.691406 79.9375 80.753906 0 44.527344-36.226562 80.757813-80.753906 80.757813zm0 0"/></svg>