<svg width="200" height="200" viewBox="0 0 200 200" fill="none" xmlns="http://www.w3.org/2000/svg">
<mask id="path-1-inside-1" fill="white">
<path fill-rule="evenodd" clip-rule="evenodd" d="M100 200C155.228 200 200 155.228 200 100C200 44.7715 155.228 0 100 0C44.7715 0 0 44.7715 0 100C0 155.228 44.7715 200 100 200ZM100 134C118.778 134 134 118.778 134 100C134 81.2223 118.778 66 100 66C81.2223 66 66 81.2223 66 100C66 118.778 81.2223 134 100 134Z"/>
</mask>
<path d="M196 100C196 153.019 153.019 196 100 196V204C157.438 204 204 157.438 204 100H196ZM100 4C153.019 4 196 46.9807 196 100H204C204 42.5624 157.438 -4 100 -4V4ZM4 100C4 46.9807 46.9807 4 100 4V-4C42.5624 -4 -4 42.5624 -4 100H4ZM100 196C46.9807 196 4 153.019 4 100H-4C-4 157.438 42.5624 204 100 204V196ZM130 100C130 116.569 116.569 130 100 130V138C120.987 138 138 120.987 138 100H130ZM100 70C116.569 70 130 83.4315 130 100H138C138 79.0132 120.987 62 100 62V70ZM70 100C70 83.4315 83.4315 70 100 70V62C79.0132 62 62 79.0132 62 100H70ZM100 130C83.4315 130 70 116.569 70 100H62C62 120.987 79.0132 138 100 138V130Z" fill="url(#paint0_linear)" mask="url(#path-1-inside-1)"/>
<mask id="path-3-inside-2" fill="white">
<path fill-rule="evenodd" clip-rule="evenodd" d="M0 100C0 44.7715 44.7715 0 100 0C155.228 0 200 44.7715 200 100C185.682 119.985 185.423 127.158 185.208 133.09C185.062 137.101 184.938 140.545 180.5 147C175.876 153.725 170.369 154.797 164.722 155.896C162.299 156.367 159.512 155.573 156.63 154.751C150.246 152.93 143.393 150.976 139 162.358C135.176 172.266 130.202 181.003 121.751 176.611C112.288 171.692 102.852 166.788 100 182C97 198 88.9314 204.352 59 171C51.0562 162.148 44.4517 162.262 38.8124 162.358C32.0286 162.475 26.6416 162.567 22 147C18.5 120 14 113.5 0 100ZM100 134C118.778 134 134 118.778 134 100C134 81.2223 118.778 66 100 66C81.2223 66 66 81.2223 66 100C66 118.778 81.2223 134 100 134Z"/>
</mask>
<path d="M198 100C198 154.124 154.124 198 100 198V202C156.333 202 202 156.333 202 100H198ZM100 198C45.8761 198 2 154.124 2 100H-2C-2 156.333 43.667 202 100 202V198ZM0 100H-4V101.7L-2.77654 102.879L0 100ZM200 100L203.252 102.33L204 101.285V100H200ZM185.208 133.09L189.205 133.235V133.235L185.208 133.09ZM180.5 147L177.204 144.734L180.5 147ZM164.722 155.896L165.486 159.822L164.722 155.896ZM156.63 154.751L157.727 150.904H157.727L156.63 154.751ZM139 162.358L135.268 160.918V160.918L139 162.358ZM121.751 176.611L123.595 173.061H123.595L121.751 176.611ZM100 182L103.931 182.737L100 182ZM59 171L56.023 173.672V173.672L59 171ZM38.8124 162.358L38.7439 158.359H38.7438L38.8124 162.358ZM22 147L18.0332 147.514L18.0746 147.834L18.1668 148.143L22 147ZM100 -4C42.5624 -4 -4 42.5624 -4 100H4C4 46.9807 46.9807 4 100 4V-4ZM204 100C204 42.5624 157.438 -4 100 -4V4C153.019 4 196 46.9807 196 100H204ZM189.205 133.235C189.307 130.42 189.404 127.649 191.062 123.216C192.771 118.643 196.197 112.176 203.252 102.33L196.748 97.6705C189.485 107.809 185.622 114.921 183.569 120.414C181.463 126.046 181.323 129.827 181.21 132.945L189.205 133.235ZM183.796 149.266C186.196 145.776 187.565 142.901 188.317 140.202C189.063 137.521 189.133 135.218 189.205 133.235L181.21 132.945C181.137 134.974 181.072 136.397 180.61 138.056C180.154 139.695 179.242 141.769 177.204 144.734L183.796 149.266ZM165.486 159.822C171.22 158.706 178.196 157.411 183.796 149.266L177.204 144.734C173.557 150.039 169.519 150.887 163.958 151.97L165.486 159.822ZM155.533 158.597C158.121 159.335 161.928 160.514 165.486 159.822L163.958 151.97C162.67 152.22 160.903 151.81 157.727 150.904L155.533 158.597ZM142.732 163.799C144.64 158.853 146.642 157.807 147.968 157.501C149.835 157.07 152.087 157.614 155.533 158.597L157.727 150.904C154.789 150.066 150.422 148.723 146.168 149.706C141.374 150.813 137.753 154.481 135.268 160.918L142.732 163.799ZM119.906 180.16C122.672 181.597 125.505 182.125 128.287 181.546C131.017 180.979 133.228 179.446 134.987 177.627C138.382 174.115 140.817 168.758 142.732 163.798L135.268 160.918C133.359 165.866 131.396 169.832 129.235 172.067C128.216 173.121 127.36 173.568 126.66 173.714C126.014 173.848 125.055 173.82 123.595 173.061L119.906 180.16ZM103.931 182.737C104.579 179.284 105.506 177.55 106.252 176.716C106.857 176.04 107.492 175.771 108.459 175.756C109.614 175.738 111.181 176.106 113.262 176.947C115.312 177.776 117.501 178.91 119.906 180.16L123.595 173.061C121.269 171.852 118.73 170.529 116.26 169.53C113.821 168.544 111.077 167.714 108.334 167.757C105.402 167.803 102.552 168.853 100.29 171.382C98.1688 173.753 96.8472 177.11 96.0685 181.263L103.931 182.737ZM56.023 173.672C63.5853 182.098 69.8883 188.156 75.1772 192.213C80.3747 196.2 85.02 198.591 89.2221 198.989C91.4123 199.197 93.4927 198.862 95.3761 197.929C97.238 197.007 98.6828 195.613 99.8016 194.033C101.963 190.981 103.155 186.881 103.931 182.737L96.0685 181.263C95.3454 185.119 94.4039 187.813 93.2728 189.41C92.7457 190.154 92.2549 190.548 91.826 190.76C91.4186 190.962 90.8531 191.108 89.9765 191.025C88.045 190.842 84.8735 189.568 80.0461 185.865C75.3102 182.233 69.3804 176.578 61.977 168.328L56.023 173.672ZM38.881 166.358C41.7353 166.309 44.1813 166.292 46.8287 167.135C49.3953 167.952 52.4488 169.689 56.023 173.672L61.977 168.328C57.6073 163.459 53.3867 160.827 49.2553 159.512C45.2046 158.222 41.5288 158.311 38.7439 158.359L38.881 166.358ZM18.1668 148.143C20.5572 156.16 23.398 161.148 27.3364 163.856C31.3277 166.601 35.6986 166.412 38.881 166.358L38.7438 158.359C35.1424 158.421 33.4278 158.336 31.8694 157.264C30.2579 156.156 28.0843 153.407 25.8332 145.857L18.1668 148.143ZM-2.77654 102.879C4.18682 109.594 8.36951 114.189 11.3531 120.213C14.361 126.285 16.2966 134.118 18.0332 147.514L25.9668 146.486C24.2034 132.882 22.139 123.965 18.5219 116.662C14.8805 109.311 9.81318 103.906 2.77654 97.1206L-2.77654 102.879ZM130 100C130 116.569 116.569 130 100 130V138C120.987 138 138 120.987 138 100H130ZM100 70C116.569 70 130 83.4315 130 100H138C138 79.0132 120.987 62 100 62V70ZM70 100C70 83.4315 83.4315 70 100 70V62C79.0132 62 62 79.0132 62 100H70ZM100 130C83.4315 130 70 116.569 70 100H62C62 120.987 79.0132 138 100 138V130Z" fill="url(#paint1_linear)" mask="url(#path-3-inside-2)"/>
<defs>
<linearGradient id="paint0_linear" x1="100" y1="0" x2="100" y2="200" gradientUnits="userSpaceOnUse">
<stop stop-color="#35E7FF"/>
<stop offset="0.0001" stop-color="#2BE6FF"/>
<stop offset="1" stop-color="#006573"/>
</linearGradient>
<linearGradient id="paint1_linear" x1="100" y1="0" x2="100" y2="200" gradientUnits="userSpaceOnUse">
<stop stop-color="#35E7FF"/>
<stop offset="0.0001" stop-color="#2BE6FF"/>
<stop offset="1" stop-color="#006573"/>
</linearGradient>
</defs>
</svg>
