<svg height="512pt" viewBox="-53 0 512 512.00096" width="512pt" xmlns="http://www.w3.org/2000/svg"><path d="m340.523438 118.457031c-6.433594-2.242187-11.191407-7.640625-12.855469-14.242187-14.023438-55.582032-64.347657-96.722656-124.285157-96.722656s-110.257812 41.140624-124.28125 96.722656c-1.664062 6.601562-6.421874 12-12.855468 14.242187-34.472656 12.003907-59.136719 44.953125-58.738282 83.613281.5 48.148438 40.386719 86.613282 88.539063 86.613282h214.675781c48.152344 0 88.039063-38.464844 88.539063-86.613282.398437-38.65625-24.265625-71.609374-58.738281-83.613281zm0 0" fill="#f99daf"/><path d="m340.523438 118.457031c-6.433594-2.242187-11.191407-7.640625-12.855469-14.242187-14.023438-55.582032-64.347657-96.722656-124.285157-96.722656-33.746093 0-64.441406 13.039062-87.328124 34.359374 16.765624-8.046874 35.546874-12.558593 55.390624-12.558593 59.9375 0 110.257813 41.140625 124.28125 96.722656 1.664063 6.601563 6.421876 12 12.855469 14.242187 34.476563 12.003907 59.136719 44.953126 58.738281 83.613282-.234374 22.621094-9.164062 43.105468-23.5625 58.46875 32.097657-12.828125 55.125-43.761719 55.5-80.269532.402344-38.65625-24.261718-71.609374-58.734374-83.613281zm0 0" fill="#eb7e94"/><path d="m317.691406 504.507812h-228.613281c-18.660156 0-34.773437-13.054687-38.644531-31.308593l-42.632813-201.050781c-1.765625-8.316407 4.582031-16.148438 13.082031-16.148438h365c8.503907 0 14.847657 7.832031 13.085938 16.148438l-42.632812 201.050781c-3.871094 18.253906-19.988282 31.308593-38.644532 31.308593zm0 0" fill="#5b96d1"/><path d="m385.882812 256h-41c8.503907 0 14.847657 7.832031 13.082032 16.148438l-42.632813 201.050781c-3.871093 18.253906-19.984375 31.308593-38.644531 31.308593h41.003906c18.65625 0 34.773438-13.054687 38.644532-31.308593l42.632812-201.050781c1.761719-8.316407-4.582031-16.148438-13.085938-16.148438zm0 0" fill="#4081c2"/><path d="m210.886719 418.332031v-76.671875c0-4.140625-3.359375-7.5-7.5-7.5-4.144531 0-7.5 3.359375-7.5 7.5v76.671875c0 4.140625 3.355469 7.5 7.5 7.5 4.140625 0 7.5-3.359375 7.5-7.5zm0 0"/><path d="m139.03125 425.523438c3.972656-1.175782 6.242188-5.347657 5.066406-9.320313l-22.667968-76.667969c-1.171876-3.972656-5.34375-6.238281-9.316407-5.066406-3.972656 1.171875-6.242187 5.34375-5.066406 9.316406l22.667969 76.671875c1.171875 3.96875 5.34375 6.238281 9.316406 5.066407zm0 0"/><path d="m277.054688 420.457031 22.667968-76.671875c1.175782-3.972656-1.09375-8.144531-5.066406-9.316406-3.964844-1.171875-8.144531 1.09375-9.316406 5.066406l-22.667969 76.667969c-1.175781 3.972656 1.09375 8.144531 5.066406 9.320313 3.960938 1.171874 8.140625-1.085938 9.316407-5.066407zm0 0"/><path d="m393.210938 249.808594c30.585937-50.316406 7.546874-118.328125-50.222657-138.445313-3.964843-1.382812-6.976562-4.746093-8.046875-8.996093-1.949218-7.714844-4.609375-15.328126-7.917968-22.625-1.707032-3.773438-6.148438-5.449219-9.925782-3.738282-3.773437 1.707032-5.445312 6.152344-3.738281 9.925782 2.9375 6.488281 5.308594 13.253906 7.035156 20.109374 2.3125 9.160157 8.914063 16.445313 17.660157 19.492188 50.996093 17.757812 70.046874 80.082031 37.960937 122.957031h-345.261719c-32.089844-42.878906-13.039062-105.199219 37.960938-122.957031 8.746094-3.046875 15.351562-10.335938 17.660156-19.492188 24.617188-97.585937 151.710938-123.941406 213.046875-43.449218 2.507813 3.292968 7.210937 3.929687 10.511719 1.417968 3.292968-2.507812 3.929687-7.214843 1.417968-10.511718-68.964843-90.503906-211.84375-60.84375-239.519531 48.875-1.074219 4.25-4.082031 7.609375-8.050781 8.992187-57.625 20.066407-80.871094 88.019531-50.222656 138.445313-9.429688 3.523437-15.289063 13.542968-13.09375 23.886718l13.839844 65.265626c.855468 4.050781 4.835937 6.640624 8.890624 5.78125 4.054688-.859376 6.640626-4.84375 5.78125-8.894532l-13.835937-65.265625c-.777344-3.65625 2.003906-7.089843 5.746094-7.089843h365c3.738281 0 6.519531 3.433593 5.746093 7.09375l-42.632812 201.046874c-3.117188 14.699219-16.285156 25.367188-31.308594 25.367188h-228.613281c-15.023437 0-28.191406-10.667969-31.308594-25.363281l-22.855469-107.789063c-.855468-4.050781-4.835937-6.640625-8.890624-5.78125-4.054688.859375-6.640626 4.84375-5.78125 8.894532l22.855468 107.785156c4.578125 21.585937 23.914063 37.253906 45.980469 37.253906h228.613281c22.0625 0 41.402344-15.667969 45.980469-37.253906l42.632813-201.050782c2.191406-10.339843-3.660157-20.359374-13.09375-23.886718zm0 0"/><path d="m70.410156 163.660156-22.832031 22.832032c-4.738281 4.734374-1.316406 12.800781 5.304687 12.800781 1.917969 0 3.839844-.730469 5.304688-2.195313l22.828125-22.832031c2.929687-2.929687 2.929687-7.679687 0-10.605469-2.925781-2.929687-7.675781-2.929687-10.605469 0zm0 0"/><path d="m149.214844 126.328125v-32.289063c0-4.140624-3.355469-7.5-7.5-7.5-4.140625 0-7.5 3.359376-7.5 7.5v32.289063c0 4.140625 3.359375 7.5 7.5 7.5 4.144531 0 7.5-3.359375 7.5-7.5zm0 0"/><path d="m202.515625 52.265625c-2.929687 2.925781-2.929687 7.675781 0 10.605469l22.832031 22.832031c2.929688 2.925781 7.675782 2.925781 10.605469 0 2.929687-2.929687 2.929687-7.679687 0-10.609375l-22.832031-22.828125c-2.929688-2.929687-7.675782-2.929687-10.605469 0zm0 0"/><path d="m145.058594 217.820312 29.457031-13.222656c3.78125-1.699218 5.46875-6.136718 3.773437-9.917968-1.699218-3.777344-6.136718-5.464844-9.917968-3.769532l-29.457032 13.222656c-3.777343 1.695313-5.464843 6.136719-3.769531 9.914063 1.703125 3.792969 6.148438 5.460937 9.914063 3.773437zm0 0"/><path d="m292.746094 212.140625c0 4.140625 3.355468 7.5 7.5 7.5h32.289062c4.140625 0 7.5-3.359375 7.5-7.5 0-4.144531-3.359375-7.5-7.5-7.5h-32.289062c-4.144532 0-7.5 3.355469-7.5 7.5zm0 0"/><path d="m249.183594 140.980469c-3.921875-1.316407-8.179688.792969-9.5 4.71875-1.320313 3.925781.792968 8.179687 4.71875 9.5l30.605468 10.292969c3.925782 1.316406 8.179688-.792969 9.5-4.71875 1.320313-3.925782-.792968-8.179688-4.71875-9.5zm0 0"/></svg>