<svg height="512pt" viewBox="0 -40 512.00123 512" width="512pt" xmlns="http://www.w3.org/2000/svg"><path d="m412.457031 432.414062h-312.917969c-22.84375 0-42.632812-15.835937-47.644531-38.125l-24.421875-108.683593h457.054688l-24.425782 108.683593c-5.007812 22.289063-24.800781 38.125-47.644531 38.125zm0 0" fill="#d7d9cc"/><path d="m438.171875 285.605469-24.425781 108.683593c-5.011719 22.289063-24.800782 38.125-47.644532 38.125h46.355469c22.84375 0 42.636719-15.835937 47.644531-38.125l24.425782-108.683593zm0 0" fill="#bebfb5"/><path d="m498.984375 222.566406c-11.203125-15.945312-19.113281-33.917968-23.957031-52.792968-25.039063-97.621094-113.601563-169.773438-219.027344-169.773438s-193.992188 72.152344-219.03125 169.773438c-4.839844 18.875-12.75 36.847656-23.953125 52.792968-8.519531 12.128906-13.386719 27.007813-12.9921875 43.046875.9296875 37.828125 31.6289065 68.78125 69.4492185 70.007813 24.882813.804687 47.039063-11.050782 60.53125-29.609375 1.558594-2.140625 4.726563-2.152344 6.285156-.011719 13.058594 17.972656 34.242188 29.660156 58.160157 29.660156 24.0625 0 45.359375-11.832031 58.402343-29.996094 1.550782-2.160156 4.75-2.160156 6.300782 0 13.039062 18.164063 34.335937 29.996094 58.402344 29.996094 23.914062 0 45.097656-11.6875 58.15625-29.660156 1.558593-2.140625 4.730468-2.125 6.285156.011719 13.492187 18.5625 35.652344 30.414062 60.535156 29.609375 37.820312-1.222656 68.519531-32.179688 69.449219-70.007813.390625-16.039062-4.476563-30.917969-12.996094-43.046875zm0 0" fill="#fb9050"/><path d="m499.054688 222.667969c-11.195313-15.988281-19.171876-33.953125-24.015626-52.859375-25.027343-97.636719-113.601562-169.808594-219.039062-169.808594-7.035156 0-13.992188.324219-20.863281.949219 102.609375 9.390625 185.382812 87.332031 202.144531 187.632812 1.601562 9.601563 6.207031 18.4375 12.953125 25.457031 12.792969 13.3125 20.511719 31.539063 20.019531 51.570313-.773437 31.449219-22.128906 58.128906-51.035156 66.945313 7.550781 2.296874 15.628906 3.390624 24.011719 3.039062 37.617187-1.578125 67.929687-32.542969 68.75-70.183594.347656-15.917968-4.484375-30.6875-12.925781-42.742187zm0 0" fill="#eb7936"/><g fill="#a64f3b"><path d="m263.722656 135.347656v-59.484375c0-4.265625-3.457031-7.726562-7.726562-7.726562-4.265625 0-7.726563 3.460937-7.726563 7.726562v59.484375c0 4.265625 3.460938 7.726563 7.726563 7.726563 4.269531-.003907 7.726562-3.460938 7.726562-7.726563zm0 0"/><path d="m160.644531 139.644531 39.835938-59.480469c2.371093-3.546874 1.421875-8.347656-2.121094-10.71875-3.546875-2.375-8.347656-1.425781-10.71875 2.121094l-39.835937 59.480469c-2.371094 3.546875-1.425782 8.34375 2.121093 10.71875 3.535157 2.367187 8.339844 1.433594 10.71875-2.121094zm0 0"/><path d="m362.070312 141.765625c3.546876-2.375 4.492188-7.175781 2.121094-10.71875l-39.835937-59.480469c-2.375-3.546875-7.175781-4.496094-10.71875-2.121094-3.546875 2.371094-4.492188 7.171876-2.121094 10.71875l39.835937 59.480469c2.375 3.550781 7.175782 4.492188 10.71875 2.121094zm0 0"/></g></svg>